# xmcd CD database file
#
# Track frame offsets:
#	150
#	20775
#	36377
#
# Disc length: 666 seconds
#
# Revision: 0
# Processed by: cddbd v1.5.1PL0 Copyright (c) Steve Scherf et al.
# Submitted via: CDex 1.51
#
DISCID=23029803
DTITLE=Sleepin' JohnnyFish - 夜行性
DYEAR=2004
DGENRE=J-POP
TTITLE0=夜行性
TTITLE1=ニンジャウォーク
TTITLE2=七月七日
EXTD=YEAR: 2004
EXTT0=
EXTT1=
EXTT2=
PLAYORDER=
